<mxfile host="app.diagrams.net" modified="2023-05-13T16:01:10.407Z" agent="Mozilla/5.0 (Windows NT 10.0; Win64; x64) AppleWebKit/537.36 (KHTML, like Gecko) Chrome/113.0.0.0 Safari/537.36" etag="qt09r0AcqiHyTxrt-CQM" version="21.3.0" type="device">
  <diagram name="Pagina-1" id="0mUiDwWGVpkNlT__qzqu">
    <mxGraphModel dx="317" dy="354" grid="1" gridSize="10" guides="1" tooltips="1" connect="1" arrows="1" fold="1" page="1" pageScale="1" pageWidth="827" pageHeight="1169" math="0" shadow="0">
      <root>
        <mxCell id="0" />
        <mxCell id="1" parent="0" />
        <mxCell id="K_5uVWaHuatnId3TePY4-8" value="" style="ellipse;html=1;shape=startState;fillColor=#000000;strokeColor=#ff0000;direction=west;" vertex="1" parent="1">
          <mxGeometry x="460" y="90" width="30" height="30" as="geometry" />
        </mxCell>
        <mxCell id="K_5uVWaHuatnId3TePY4-9" value="" style="edgeStyle=orthogonalEdgeStyle;html=1;verticalAlign=bottom;endArrow=open;endSize=8;strokeColor=#ff0000;rounded=0;" edge="1" source="K_5uVWaHuatnId3TePY4-8" parent="1">
          <mxGeometry relative="1" as="geometry">
            <mxPoint x="475" y="180" as="targetPoint" />
          </mxGeometry>
        </mxCell>
        <mxCell id="K_5uVWaHuatnId3TePY4-13" value="Apăsare pe Meniu" style="rounded=1;whiteSpace=wrap;html=1;arcSize=40;fontColor=#000000;fillColor=#ffffc0;strokeColor=#ff0000;" vertex="1" parent="1">
          <mxGeometry x="415" y="180" width="120" height="40" as="geometry" />
        </mxCell>
        <mxCell id="K_5uVWaHuatnId3TePY4-14" value="" style="edgeStyle=orthogonalEdgeStyle;html=1;verticalAlign=bottom;endArrow=open;endSize=8;strokeColor=#ff0000;rounded=0;" edge="1" source="K_5uVWaHuatnId3TePY4-13" parent="1">
          <mxGeometry relative="1" as="geometry">
            <mxPoint x="475" y="280" as="targetPoint" />
          </mxGeometry>
        </mxCell>
        <mxCell id="K_5uVWaHuatnId3TePY4-18" value="Apăsare pe Deschidere fișier" style="rounded=1;whiteSpace=wrap;html=1;arcSize=40;fontColor=#000000;fillColor=#ffffc0;strokeColor=#ff0000;" vertex="1" parent="1">
          <mxGeometry x="415" y="280" width="120" height="40" as="geometry" />
        </mxCell>
        <mxCell id="K_5uVWaHuatnId3TePY4-19" value="" style="edgeStyle=orthogonalEdgeStyle;html=1;verticalAlign=bottom;endArrow=open;endSize=8;strokeColor=#ff0000;rounded=0;" edge="1" source="K_5uVWaHuatnId3TePY4-18" parent="1">
          <mxGeometry relative="1" as="geometry">
            <mxPoint x="475" y="380" as="targetPoint" />
          </mxGeometry>
        </mxCell>
        <mxCell id="K_5uVWaHuatnId3TePY4-20" value="Utilizatorul a &lt;br&gt;selectat un fișier mp3&amp;nbsp;" style="rhombus;whiteSpace=wrap;html=1;fontColor=#000000;fillColor=#ffffc0;strokeColor=#ff0000;" vertex="1" parent="1">
          <mxGeometry x="390" y="380" width="160" height="110" as="geometry" />
        </mxCell>
        <mxCell id="K_5uVWaHuatnId3TePY4-21" value="Nu" style="edgeStyle=orthogonalEdgeStyle;html=1;align=left;verticalAlign=bottom;endArrow=open;endSize=8;strokeColor=#ff0000;rounded=0;entryX=0;entryY=0.5;entryDx=0;entryDy=0;" edge="1" source="K_5uVWaHuatnId3TePY4-20" parent="1" target="K_5uVWaHuatnId3TePY4-8">
          <mxGeometry x="-1" relative="1" as="geometry">
            <mxPoint x="630" y="110" as="targetPoint" />
            <Array as="points">
              <mxPoint x="631" y="435" />
              <mxPoint x="631" y="105" />
            </Array>
          </mxGeometry>
        </mxCell>
        <mxCell id="K_5uVWaHuatnId3TePY4-22" value="Da" style="edgeStyle=orthogonalEdgeStyle;html=1;align=left;verticalAlign=top;endArrow=open;endSize=8;strokeColor=#ff0000;rounded=0;entryX=0.5;entryY=0;entryDx=0;entryDy=0;" edge="1" source="K_5uVWaHuatnId3TePY4-20" parent="1" target="K_5uVWaHuatnId3TePY4-23">
          <mxGeometry x="-0.7914" y="20" relative="1" as="geometry">
            <mxPoint x="471" y="620" as="targetPoint" />
            <Array as="points">
              <mxPoint x="475" y="500" />
              <mxPoint x="480" y="500" />
              <mxPoint x="480" y="620" />
              <mxPoint x="475" y="620" />
            </Array>
            <mxPoint as="offset" />
          </mxGeometry>
        </mxCell>
        <mxCell id="K_5uVWaHuatnId3TePY4-23" value="" style="ellipse;html=1;shape=endState;fillColor=#000000;strokeColor=#ff0000;" vertex="1" parent="1">
          <mxGeometry x="470" y="630" width="30" height="30" as="geometry" />
        </mxCell>
      </root>
    </mxGraphModel>
  </diagram>
</mxfile>
